# xmcd CD database generated by RipIT
#
# Track frame offsets:
# 150
# 15087
# 38474
# 52478
# 71015
# 86047
# 94534
# 110318
# 122818
# 136468
# 145342
# 164306
# 178719
#
# Disc length: 2457 seconds
#
# Revision: 0
# Processed by: cddbd v1.5.2PL0 Copyright (c) Steve Scherf et al.
# Submitted via: RipIT 3.8.0 www.suwald.com/ripit/ripit.html on 2011-01-24 at 00:20
#
DISCID=ad09970d
DTITLE=Harry Manx - Dog My Cat
DYEAR=2001
DGENRE=Blues
TTITLE0=Can't Be Satisfied
TTITLE1=Bring That Thing
TTITLE2=Good Morning Stranger
TTITLE3=Reuben's Train
TTITLE4=Lay Down My Worries
TTITLE5=Rag Bihag (Dusk Rag)
TTITLE6=Sunday Morning Ascension
TTITLE7=Baby Please Don't Go
TTITLE8=Brick And Stone
TTITLE9=Song For William
TTITLE10=Love Ain't No Game
TTITLE11=Shame Shame Shame
TTITLE12=Rag Jog (Evening Rag)
EXTD=
EXTT0=
EXTT1=
EXTT2=
EXTT3=
EXTT4=
EXTT5=
EXTT6=
EXTT7=
EXTT8=
EXTT9=
EXTT10=
EXTT11=
EXTT12=
PLAYORDER=
